# xmcd CD database file
#
# Track frame offsets:
#	150
#	11032
#	27044
#	40124
#	56446
#	76596
#	92175
#	112207
#	124453
#	139227
#	153080
#	170471
#	191577
#	206801
#	224448
#	234798
#
# Disc length: 3291 seconds
#
# Revision: 0
# Processed by: cddbd v1.5.2PL0 Copyright (c) Steve Scherf et al.
# Submitted via: CDex 1.51
#
DISCID=d60cd910
DTITLE=Chicken Shack - In The Can
DYEAR=1980
DGENRE=Blues
TTITLE0=See see baby
TTITLE1=When the train comes back
TTITLE2=Webbed feet
TTITLE3=You ain't no good
TTITLE4=The letter
TTITLE5=A woman the blues
TTITLE6=The way it is
TTITLE7=Tears in the wind
TTITLE8=I'd rather go blind
TTITLE9=San-ho-zay
TTITLE10=Get like you used to be
TTITLE11=Fishing in your river
TTITLE12=Pocket
TTITLE13=I wanna see my baby
TTITLE14=Andalucian blues
TTITLE15=Sad clown
EXTD=YEAR: 1980
EXTT0=
EXTT1=
EXTT2=
EXTT3=
EXTT4=
EXTT5=
EXTT6=
EXTT7=
EXTT8=
EXTT9=
EXTT10=
EXTT11=
EXTT12=
EXTT13=
EXTT14=
EXTT15=
PLAYORDER=
